<svg xmlns="http://www.w3.org/2000/svg"  viewBox="0 0 64 64" width="64px" height="64px"><polygon fill="#faefde" points="54,9 54,6 10,6 10,9 7,9 7,55 10,55 10,58 54,58 54,55 57,55 57,9"/><polygon fill="#fff7f0" points="54,9 54,7.399 7,54.391 7,55 10,55 10,58 27,58 57,28 57,9"/><polygon fill="#fff7f0" points="39,6 7,38 7,41 42,6"/><polygon fill="#fff7f0" points="45,6 7,44 7,50 51,6"/><polygon fill="#fff" points="32.5,35 33.74,37.26 36,38.5 33.74,39.74 32.5,42 31.26,39.74 29,38.5 31.26,37.26"/><polygon fill="#fff" points="20.5,14 21.378,15.612 23,16.5 21.378,17.378 20.5,19 19.612,17.378 18,16.5 19.612,15.612"/><polygon fill="#fff" points="48.5,21 49.027,21.964 50,22.5 49.027,23.027 48.5,24 47.964,23.027 47,22.5 47.964,21.964"/><polygon fill="#9ba7bc" points="50,45 50,48 14,48 14,45 10,45 10,52 13,52 13,55 51,55 51,52 54,52 54,45"/><polygon fill="#bfc9db" points="14,6 10,6 10,9 7,9 7,13 11,13 11,10 14,10"/><polygon fill="#bfc9db" points="54,9 54,6 50,6 50,10 53,10 53,13 57,13 57,9"/><polygon fill="#bfc9db" points="57,51 53,51 53,54 50,54 50,58 54,58 54,55 57,55"/><polygon fill="#bfc9db" points="11,54 11,51 7,51 7,55 10,55 10,58 14,58 14,54"/><rect width="3" height="15" x="22" y="19" fill="#7e8089"/><rect width="3" height="15" x="39" y="19" fill="#7e8089"/><rect width="3" height="3" x="11" y="10" fill="#7e8089"/><rect width="3" height="3" x="11" y="51" fill="#7e8089"/><rect width="3" height="3" x="50" y="51" fill="#7e8089"/><rect width="4" height="38" x="7" y="13" fill="#7e8089"/><rect width="3" height="3" x="50" y="10" fill="#7e8089"/><rect width="36" height="4" x="14" y="6" fill="#7e8089"/><rect width="36" height="4" x="14" y="54" fill="#7e8089"/><rect width="4" height="38" x="53" y="13" fill="#7e8089"/><path fill="#8d6c9f" d="M53,7v3h3v44h-3v3H11v-3H8V10h3V7H53 M54,5H10C9.448,5,9,5.448,9,6v2H7C6.448,8,6,8.448,6,9v46	c0,0.552,0.448,1,1,1h2v2c0,0.552,0.448,1,1,1h44c0.552,0,1-0.448,1-1v-2h2c0.552,0,1-0.448,1-1V9c0-0.552-0.448-1-1-1h-2V6	C55,5.448,54.552,5,54,5z"/></svg>