<svg xmlns="http://www.w3.org/2000/svg"  viewBox="0 0 64 64" width="64px" height="64px" baseProfile="basic"><linearGradient id="Dpqjj5VVR2o6PRlH68JlWa" x1="14" x2="14" y1="6.052" y2="53.837" gradientUnits="userSpaceOnUse"><stop offset="0" stop-color="#1a6dff"/><stop offset="1" stop-color="#c822ff"/></linearGradient><rect width="4" height="4" x="12" y="10" fill="url(#Dpqjj5VVR2o6PRlH68JlWa)"/><linearGradient id="Dpqjj5VVR2o6PRlH68JlWb" x1="50" x2="50" y1="5.535" y2="53.32" gradientUnits="userSpaceOnUse"><stop offset="0" stop-color="#1a6dff"/><stop offset="1" stop-color="#c822ff"/></linearGradient><rect width="4" height="4" x="48" y="10" fill="url(#Dpqjj5VVR2o6PRlH68JlWb)"/><linearGradient id="Dpqjj5VVR2o6PRlH68JlWc" x1="14" x2="14" y1="10.569" y2="58.354" gradientUnits="userSpaceOnUse"><stop offset="0" stop-color="#1a6dff"/><stop offset="1" stop-color="#c822ff"/></linearGradient><rect width="4" height="4" x="12" y="50" fill="url(#Dpqjj5VVR2o6PRlH68JlWc)"/><linearGradient id="Dpqjj5VVR2o6PRlH68JlWd" x1="50" x2="50" y1="10.052" y2="57.837" gradientUnits="userSpaceOnUse"><stop offset="0" stop-color="#1a6dff"/><stop offset="1" stop-color="#c822ff"/></linearGradient><rect width="4" height="4" x="48" y="50" fill="url(#Dpqjj5VVR2o6PRlH68JlWd)"/><linearGradient id="Dpqjj5VVR2o6PRlH68JlWe" x1="32" x2="32" y1="5.943" y2="49.365" gradientUnits="userSpaceOnUse"><stop offset="0" stop-color="#1a6dff"/><stop offset="1" stop-color="#c822ff"/></linearGradient><rect width="32" height="4" x="16" y="6" fill="url(#Dpqjj5VVR2o6PRlH68JlWe)"/><linearGradient id="Dpqjj5VVR2o6PRlH68JlWf" x1="32" x2="32" y1="14.534" y2="57.956" gradientUnits="userSpaceOnUse"><stop offset="0" stop-color="#1a6dff"/><stop offset="1" stop-color="#c822ff"/></linearGradient><rect width="32" height="4" x="16" y="54" fill="url(#Dpqjj5VVR2o6PRlH68JlWf)"/><linearGradient id="Dpqjj5VVR2o6PRlH68JlWg" x1="54" x2="54" y1="4.356" y2="58.798" gradientUnits="userSpaceOnUse"><stop offset="0" stop-color="#1a6dff"/><stop offset="1" stop-color="#c822ff"/></linearGradient><rect width="4" height="36" x="52" y="14" fill="url(#Dpqjj5VVR2o6PRlH68JlWg)"/><linearGradient id="Dpqjj5VVR2o6PRlH68JlWh" x1="10" x2="10" y1="5.076" y2="59.517" gradientUnits="userSpaceOnUse"><stop offset="0" stop-color="#1a6dff"/><stop offset="1" stop-color="#c822ff"/></linearGradient><rect width="4" height="36" x="8" y="14" fill="url(#Dpqjj5VVR2o6PRlH68JlWh)"/><linearGradient id="Dpqjj5VVR2o6PRlH68JlWi" x1="22" x2="22" y1="17.731" y2="32.542" gradientUnits="userSpaceOnUse"><stop offset="0" stop-color="#1a6dff"/><stop offset="1" stop-color="#c822ff"/></linearGradient><rect width="4" height="14" x="20" y="18" fill="url(#Dpqjj5VVR2o6PRlH68JlWi)"/><linearGradient id="Dpqjj5VVR2o6PRlH68JlWj" x1="42" x2="42" y1="17.731" y2="32.542" gradientUnits="userSpaceOnUse"><stop offset="0" stop-color="#1a6dff"/><stop offset="1" stop-color="#c822ff"/></linearGradient><rect width="4" height="14" x="40" y="18" fill="url(#Dpqjj5VVR2o6PRlH68JlWj)"/><g><linearGradient id="Dpqjj5VVR2o6PRlH68JlWk" x1="10" x2="10" y1="10.029" y2="58.029" gradientUnits="userSpaceOnUse"><stop offset="0" stop-color="#8ab4ff"/><stop offset="1" stop-color="#e492ff"/></linearGradient><rect width="4" height="4" x="8" y="50" fill="url(#Dpqjj5VVR2o6PRlH68JlWk)"/><linearGradient id="Dpqjj5VVR2o6PRlH68JlWl" x1="32" x2="32" y1="10.124" y2="57.949" gradientUnits="userSpaceOnUse"><stop offset="0" stop-color="#8ab4ff"/><stop offset="1" stop-color="#e492ff"/></linearGradient><polygon fill="url(#Dpqjj5VVR2o6PRlH68JlWl)" points="48,42 48,46 16,46 16,42 12,42 12,50 16,50 16,54 48,54 48,50 52,50 52,42"/><linearGradient id="Dpqjj5VVR2o6PRlH68JlWm" x1="14" x2="14" y1="10.029" y2="58.029" gradientUnits="userSpaceOnUse"><stop offset="0" stop-color="#8ab4ff"/><stop offset="1" stop-color="#e492ff"/></linearGradient><rect width="4" height="4" x="12" y="54" fill="url(#Dpqjj5VVR2o6PRlH68JlWm)"/><linearGradient id="Dpqjj5VVR2o6PRlH68JlWn" x1="54" x2="54" y1="9.949" y2="57.949" gradientUnits="userSpaceOnUse"><stop offset="0" stop-color="#8ab4ff"/><stop offset="1" stop-color="#e492ff"/></linearGradient><rect width="4" height="4" x="52" y="50" fill="url(#Dpqjj5VVR2o6PRlH68JlWn)"/><linearGradient id="Dpqjj5VVR2o6PRlH68JlWo" x1="54" x2="54" y1="5.883" y2="53.883" gradientUnits="userSpaceOnUse"><stop offset="0" stop-color="#8ab4ff"/><stop offset="1" stop-color="#e492ff"/></linearGradient><rect width="4" height="4" x="52" y="10" fill="url(#Dpqjj5VVR2o6PRlH68JlWo)"/><linearGradient id="Dpqjj5VVR2o6PRlH68JlWp" x1="50" x2="50" y1="5.883" y2="53.883" gradientUnits="userSpaceOnUse"><stop offset="0" stop-color="#8ab4ff"/><stop offset="1" stop-color="#e492ff"/></linearGradient><rect width="4" height="4" x="48" y="6" fill="url(#Dpqjj5VVR2o6PRlH68JlWp)"/><linearGradient id="Dpqjj5VVR2o6PRlH68JlWq" x1="14" x2="14" y1="5.949" y2="53.949" gradientUnits="userSpaceOnUse"><stop offset="0" stop-color="#8ab4ff"/><stop offset="1" stop-color="#e492ff"/></linearGradient><rect width="4" height="4" x="12" y="6" fill="url(#Dpqjj5VVR2o6PRlH68JlWq)"/><linearGradient id="Dpqjj5VVR2o6PRlH68JlWr" x1="10" x2="10" y1="5.963" y2="53.964" gradientUnits="userSpaceOnUse"><stop offset="0" stop-color="#8ab4ff"/><stop offset="1" stop-color="#e492ff"/></linearGradient><rect width="4" height="4" x="8" y="10" fill="url(#Dpqjj5VVR2o6PRlH68JlWr)"/><linearGradient id="Dpqjj5VVR2o6PRlH68JlWs" x1="50" x2="50" y1="9.963" y2="57.964" gradientUnits="userSpaceOnUse"><stop offset="0" stop-color="#8ab4ff"/><stop offset="1" stop-color="#e492ff"/></linearGradient><rect width="4" height="4" x="48" y="54" fill="url(#Dpqjj5VVR2o6PRlH68JlWs)"/></g></svg>