<svg xmlns="http://www.w3.org/2000/svg" width="256" height="256" viewBox="0 0 256 256" version="1.1"><path d="M 204 77 C 204 78.333, 203.333 79, 202 79 C 200.062 79, 200 79.667, 200 100.500 L 200 122 194 122 L 188 122 188 110.500 L 188 99 185.500 99 C 183.500 99, 183 98.500, 183 96.500 C 183 93.177, 179.288 92.955, 178.820 96.250 C 178.614 97.696, 177.696 98.614, 176.250 98.820 C 174.036 99.134, 174 99.369, 174 113.500 C 174 127.631, 174.036 127.866, 176.250 128.180 C 177.696 128.386, 178.614 129.304, 178.820 130.750 C 179.025 132.196, 179.829 133, 181.070 133 C 182.548 133, 183 133.703, 183 136 L 183 139 191.500 139 L 200 139 200 170 L 200 201 206.500 201 L 213 201 213 181 L 213 161 221 161 C 228.867 161, 229 160.958, 229 158.500 C 229 156.500, 229.500 156, 231.500 156 C 233.500 156, 234 155.500, 234 153.500 C 234 151.667, 234.533 151, 236 151 C 237.949 151, 238 150.333, 238 125 C 238 99.667, 237.949 99, 236 99 C 234.533 99, 234 98.333, 234 96.500 C 234 93.177, 230.288 92.955, 229.820 96.250 C 229.614 97.696, 228.696 98.614, 227.250 98.820 L 225 99.139 225 122.070 L 225 145 219 145 L 213 145 213 112 C 213 79.667, 212.960 79, 211 79 C 209.667 79, 209 78.333, 209 77 C 209 75.533, 208.333 75, 206.500 75 C 204.667 75, 204 75.533, 204 77" stroke="none" fill="#6cf5c2" fill-rule="evenodd"/><path d="M 100 59 L 100 63 95.500 63 L 91 63 91 85.500 L 91 108 86 108 L 81 108 81 112.500 L 81 117 77 117 L 73 117 73 121.440 C 73 125.848, 72.974 125.881, 69.250 126.190 C 65.532 126.497, 65.497 126.541, 65.194 131.281 L 64.888 136.063 53.194 135.781 L 41.500 135.500 41.195 130.750 L 40.890 126 36.445 126 L 32 126 32 122 L 32 118 27.538 118 L 23.075 118 22.788 108.750 C 22.516 100.020, 22.374 99.482, 20.250 99.180 L 18 98.861 18 120.430 L 18 142 22.500 142 L 27 142 27 146 L 27 150 31.500 150 L 36 150 36 154.500 L 36 159 40.500 159 L 45 159 45 163.500 L 45 168 49.500 168 L 54 168 54 184.500 L 54 201 61 201 C 67.800 201, 68 200.929, 68 198.500 C 68 196.204, 67.633 196, 63.500 196 L 59 196 59 190.500 L 59 185 63.445 185 L 67.890 185 68.195 180.250 L 68.500 175.500 75.250 175.204 L 82 174.909 82 179.954 L 82 185 86.500 185 L 91 185 91 193 L 91 201 98 201 C 104.800 201, 105 200.929, 105 198.500 C 105 196.204, 104.633 196, 100.500 196 L 96 196 96 177 L 96 158 100.500 158 L 105 158 105 154.057 C 105 150.134, 105.021 150.114, 109.250 149.807 L 113.500 149.500 113.788 140.203 L 114.076 130.907 120.288 131.203 L 126.500 131.500 126.805 136.250 C 127.057 140.184, 127.444 141, 129.055 141 C 130.809 141, 131 140.263, 131 133.500 L 131 126 122.500 126 L 114 126 114 115 L 114 104 132 104 L 150 104 150 101.500 L 150 99 136.500 99 L 123 99 123 92.500 L 123 86 141 86 L 159 86 159 74.500 L 159 63 154.500 63 L 150 63 150 59 L 150 55 125 55 L 100 55 100 59 M 105 65.500 L 105 72 111 72 L 117 72 117 65.500 L 117 59 111 59 L 105 59 105 65.500" stroke="none" fill="#f3d3a3" fill-rule="evenodd"/><path d="M 95.667 50.667 C 95.300 51.033, 95 53.058, 95 55.167 L 95 59 90.500 59 L 86 59 86 81.500 L 86 104 81.500 104 L 77 104 77 108.500 L 77 113 73 113 L 69 113 69 117.500 L 69 122 65 122 L 61 122 61 126.500 L 61 131 53 131 L 45 131 45 126.500 L 45 122 40.500 122 L 36 122 36 117.500 L 36 113 31.500 113 L 27 113 27 104 L 27 95 20 95 L 13 95 13 120.500 L 13 146 17.443 146 L 21.885 146 22.193 150.250 C 22.498 154.469, 22.530 154.502, 26.693 154.805 C 30.741 155.099, 30.896 155.237, 31.193 158.805 C 31.496 162.454, 31.559 162.504, 36.250 162.805 L 41 163.110 41 167.555 L 41 172 45.500 172 L 50 172 50 178.500 L 50 185 32.500 185 C 15.667 185, 15 185.076, 15 187 C 15 188.924, 15.667 189, 32.500 189 L 50 189 50 197.500 L 50 206 61.500 206 L 73 206 73 199 L 73 192 68.500 192 C 65.167 192, 64 191.611, 64 190.500 C 64 189.258, 65.884 189, 74.960 189 L 85.919 189 86.210 197.250 L 86.500 205.500 98.250 205.782 L 110 206.063 110 199.032 L 110 192 105 192 C 101.222 192, 100 191.633, 100 190.500 C 100 189.188, 105.944 189, 147.500 189 L 195 189 195 197.500 L 195 206 206 206 L 217 206 217 197.500 L 217 189 229 189 C 240.333 189, 241 188.889, 241 187 C 241 185.111, 240.333 185, 229 185 L 217 185 217 175.500 L 217 166 225.500 166 L 234 166 234 163 C 234 160.667, 234.444 160, 236 160 C 237.467 160, 238 159.333, 238 157.500 C 238 155.500, 238.500 155, 240.500 155 L 243 155 243 124.500 L 243 94 240.500 94 C 238.667 94, 238 93.467, 238 92 C 238 90.205, 237.333 90, 231.500 90 C 225.667 90, 225 90.205, 225 92 C 225 93.333, 224.333 94, 223 94 C 221.058 94, 221 94.667, 221 117 C 221 139.333, 220.942 140, 219 140 C 217.041 140, 217 139.333, 217 107.500 C 217 75.667, 216.959 75, 215 75 C 213.667 75, 213 74.333, 213 73 C 213 71.205, 212.333 71, 206.500 71 C 200.667 71, 200 71.205, 200 73 C 200 74.467, 199.333 75, 197.500 75 L 195 75 195 96.500 C 195 114.944, 194.787 118, 193.500 118 C 192.250 118, 192 116, 192 106 C 192 94.667, 191.889 94, 190 94 C 188.667 94, 188 93.333, 188 92 C 188 90.190, 187.333 90, 181 90 C 174.667 90, 174 90.190, 174 92 C 174 93.333, 173.333 94, 172 94 C 170.068 94, 170 94.667, 170 113.500 C 170 132.333, 170.068 133, 172 133 C 173.467 133, 174 133.667, 174 135.500 C 174 137.500, 174.500 138, 176.500 138 C 178.500 138, 179 138.500, 179 140.500 C 179 142.958, 179.133 143, 187 143 L 195 143 195 164 L 195 185 147.500 185 L 100 185 100 173.555 L 100 162.110 104.750 161.805 C 109.454 161.503, 109.503 161.464, 109.810 157.750 C 110.112 154.104, 110.230 154, 114.060 154 L 118 154 118 145 C 118 136.667, 118.148 136, 120 136 C 121.704 136, 122 136.667, 122 140.500 L 122 145 129 145 L 136 145 136 133.500 L 136 122 127 122 L 118 122 118 115 L 118 108 136.546 108 L 155.091 108 154.796 101.250 L 154.500 94.500 141.250 94.221 C 130.382 93.992, 128 93.678, 128 92.471 C 128 91.231, 130.825 91, 146 91 L 164 91 164 75 L 164 59 159.500 59 L 155 59 155 54.500 L 155 50 125.667 50 C 109.533 50, 96.033 50.300, 95.667 50.667 M 100 59 L 100 63 95.500 63 L 91 63 91 85.500 L 91 108 86 108 L 81 108 81 112.500 L 81 117 77 117 L 73 117 73 121.440 C 73 125.848, 72.974 125.881, 69.250 126.190 C 65.532 126.497, 65.497 126.541, 65.194 131.281 L 64.888 136.063 53.194 135.781 L 41.500 135.500 41.195 130.750 L 40.890 126 36.445 126 L 32 126 32 122 L 32 118 27.538 118 L 23.075 118 22.788 108.750 C 22.516 100.020, 22.374 99.482, 20.250 99.180 L 18 98.861 18 120.430 L 18 142 22.500 142 L 27 142 27 146 L 27 150 31.500 150 L 36 150 36 154.500 L 36 159 40.500 159 L 45 159 45 163.500 L 45 168 49.500 168 L 54 168 54 184.500 L 54 201 61 201 C 67.800 201, 68 200.929, 68 198.500 C 68 196.204, 67.633 196, 63.500 196 L 59 196 59 190.500 L 59 185 63.445 185 L 67.890 185 68.195 180.250 L 68.500 175.500 75.250 175.204 L 82 174.909 82 179.954 L 82 185 86.500 185 L 91 185 91 193 L 91 201 98 201 C 104.800 201, 105 200.929, 105 198.500 C 105 196.204, 104.633 196, 100.500 196 L 96 196 96 177 L 96 158 100.500 158 L 105 158 105 154.057 C 105 150.134, 105.021 150.114, 109.250 149.807 L 113.500 149.500 113.788 140.203 L 114.076 130.907 120.288 131.203 L 126.500 131.500 126.805 136.250 C 127.057 140.184, 127.444 141, 129.055 141 C 130.809 141, 131 140.263, 131 133.500 L 131 126 122.500 126 L 114 126 114 115 L 114 104 132 104 L 150 104 150 101.500 L 150 99 136.500 99 L 123 99 123 92.500 L 123 86 141 86 L 159 86 159 74.500 L 159 63 154.500 63 L 150 63 150 59 L 150 55 125 55 L 100 55 100 59 M 105 65.500 L 105 72 111 72 L 117 72 117 65.500 L 117 59 111 59 L 105 59 105 65.500 M 109 65 C 109 66.333, 109.667 67, 111 67 C 112.333 67, 113 66.333, 113 65 C 113 63.667, 112.333 63, 111 63 C 109.667 63, 109 63.667, 109 65 M 204 77 C 204 78.333, 203.333 79, 202 79 C 200.062 79, 200 79.667, 200 100.500 L 200 122 194 122 L 188 122 188 110.500 L 188 99 185.500 99 C 183.500 99, 183 98.500, 183 96.500 C 183 93.177, 179.288 92.955, 178.820 96.250 C 178.614 97.696, 177.696 98.614, 176.250 98.820 C 174.036 99.134, 174 99.369, 174 113.500 C 174 127.631, 174.036 127.866, 176.250 128.180 C 177.696 128.386, 178.614 129.304, 178.820 130.750 C 179.025 132.196, 179.829 133, 181.070 133 C 182.548 133, 183 133.703, 183 136 L 183 139 191.500 139 L 200 139 200 170 L 200 201 206.500 201 L 213 201 213 181 L 213 161 221 161 C 228.867 161, 229 160.958, 229 158.500 C 229 156.500, 229.500 156, 231.500 156 C 233.500 156, 234 155.500, 234 153.500 C 234 151.667, 234.533 151, 236 151 C 237.949 151, 238 150.333, 238 125 C 238 99.667, 237.949 99, 236 99 C 234.533 99, 234 98.333, 234 96.500 C 234 93.177, 230.288 92.955, 229.820 96.250 C 229.614 97.696, 228.696 98.614, 227.250 98.820 L 225 99.139 225 122.070 L 225 145 219 145 L 213 145 213 112 C 213 79.667, 212.960 79, 211 79 C 209.667 79, 209 78.333, 209 77 C 209 75.533, 208.333 75, 206.500 75 C 204.667 75, 204 75.533, 204 77 M 73 182.500 C 73 184.333, 73.533 185, 75 185 C 76.467 185, 77 184.333, 77 182.500 C 77 180.667, 76.467 180, 75 180 C 73.533 180, 73 180.667, 73 182.500 M 30 194.450 C 30 196.903, 30.230 197, 36.070 197 C 41.792 197, 42.121 196.871, 41.820 194.750 C 41.536 192.757, 40.844 192.466, 35.750 192.200 C 30.175 191.909, 30 191.978, 30 194.450 M 162.705 192.628 C 162.317 193.016, 162 194.158, 162 195.167 C 162 196.802, 162.926 197, 170.570 197 C 178.885 197, 179.130 196.933, 178.820 194.750 C 178.525 192.674, 177.916 192.478, 170.955 192.212 C 166.805 192.053, 163.093 192.241, 162.705 192.628 M 15 203.500 C 15 205.796, 15.367 206, 19.500 206 C 23.633 206, 24 205.796, 24 203.500 C 24 201.204, 23.633 201, 19.500 201 C 15.367 201, 15 201.204, 15 203.500 M 137 203.500 C 137 205.796, 137.367 206, 141.500 206 C 145.633 206, 146 205.796, 146 203.500 C 146 201.204, 145.633 201, 141.500 201 C 137.367 201, 137 201.204, 137 203.500 M 226 203.500 C 226 205.833, 226.333 206, 231 206 C 235.667 206, 236 205.833, 236 203.500 C 236 201.167, 235.667 201, 231 201 C 226.333 201, 226 201.167, 226 203.500" stroke="none" fill="#0a0a09" fill-rule="evenodd"/></svg>